<svg xmlns="http://www.w3.org/2000/svg" width="253" height="38" viewBox="0 0 253 38">
    <defs>
        <linearGradient id="a" x1="22.942%" x2="69.258%" y1="73.967%" y2="3.571%">
            <stop offset="0%" stop-color="#F9B335"/>
            <stop offset="100%" stop-color="#FFDF00"/>
        </linearGradient>
        <linearGradient id="b" x1="-.036%" x2="100.036%" y1="50.014%" y2="50.014%">
            <stop offset="0%" stop-color="#D88D31"/>
            <stop offset="100%" stop-color="#E3BC00"/>
        </linearGradient>
        <linearGradient id="c" x1=".046%" x2="100.013%" y1="50.046%" y2="50.046%">
            <stop offset="0%" stop-color="#7B7C46"/>
            <stop offset="100%" stop-color="#AB9C31"/>
        </linearGradient>
        <linearGradient id="d" x1=".158%" x2="100.128%" y1="49.834%" y2="49.834%">
            <stop offset="0%" stop-color="#3EAB37"/>
            <stop offset="100%" stop-color="#96C125"/>
        </linearGradient>
        <linearGradient id="e" x1=".111%" x2="99.982%" y1="50.053%" y2="50.053%">
            <stop offset="0%" stop-color="#672784"/>
            <stop offset="100%" stop-color="#D71053"/>
        </linearGradient>
        <linearGradient id="f" x1=".066%" x2="99.975%" y1="49.985%" y2="49.985%">
            <stop offset="0%" stop-color="#EB73AA"/>
            <stop offset="100%" stop-color="#DE0F5E"/>
        </linearGradient>
        <linearGradient id="g" x1="1.874%" y1="50.021%" y2="50.021%">
            <stop offset="0%" stop-color="#37A9E1"/>
            <stop offset="0%" stop-color="#36A5DC"/>
            <stop offset="100%" stop-color="#2A255B"/>
        </linearGradient>
        <linearGradient id="h" x1="-.061%" x2="99.947%" y1="50.025%" y2="50.025%">
            <stop offset="0%" stop-color="#37A9E1"/>
            <stop offset="100%" stop-color="#31AC67"/>
        </linearGradient>
    </defs>
    <g fill="none" fill-rule="evenodd">
        <path fill="url(#a)" fill-rule="nonzero" d="M27 3.156c0 3.685-2.866 6.983-5.169 9.046h-.018a4.29 4.29 0 0 0-2.127 1.71.534.534 0 0 1-.123.088c-.668-1.058-1.723-1.851-3.182-2.028a6.794 6.794 0 0 0-.598-.035h-.176c-2.162-1.922-4.571-4.902-4.606-8.675a3.07 3.07 0 0 1 .808-2.116C12.442.423 13.357 0 14.236 0c1.969 0 4.8 1.94 4.8 1.94S21.425.07 23.817.07c.879 0 1.899.353 2.55 1.164.368.459.632 1.093.632 1.922z" style="mix-blend-mode:multiply"/>
        <path fill="url(#b)" fill-rule="nonzero" d="M15.966 12.367a6.554 6.554 0 0 0-.601-.037h-.177c-1.414.074-3.271 1.11-4.031 2.996a4.953 4.953 0 0 0-.336 1.664c-2.83.093-6.366-.444-8.894-3.033a3.276 3.276 0 0 1-.902-1.96c-.123-1.073.212-2.182.884-2.867 1.397-1.46 4.792-2.145 4.792-2.145s.371-3.162 2.069-4.938C9.389 1.4 10.36.92 11.369 1.011c.619.056 1.273.333 1.874.962 2.564 2.7 2.882 7.176 2.723 10.394z" style="mix-blend-mode:multiply"/>
        <path fill="url(#c)" fill-rule="nonzero" d="M13 21.502c-.018.035-.036.053-.072.088-1.914 2.318-5.236 5.374-9.588 5.41a3.115 3.115 0 0 1-2.094-.756C.469 25.612 0 24.664 0 23.768c0-1.967 1.986-4.812 1.986-4.812S.072 16.567.072 14.196c0-.79.29-1.686.94-2.335.505-.51 1.245-.861 2.22-.861 3.16 0 6.049 2.002 8.125 4.022a4.42 4.42 0 0 0-.343 1.58v.14c.018 1.898.758 3.373 1.986 4.76z" style="mix-blend-mode:multiply"/>
        <path fill="url(#d)" fill-rule="nonzero" d="M13.985 36.06c-.647.619-1.48.92-2.311.938-.962.035-1.905-.319-2.534-.903-1.461-1.398-2.146-4.796-2.146-4.796s-3.162-.372-4.938-2.07c-.61-.584-1.091-1.505-1.054-2.46.037-.673.296-1.363.962-2 2.866-2.743 7.75-2.938 11.004-2.69.056 0 .111.018.148.018.703.76 1.554 1.504 2.516 2.283.425.336.832.69 1.183 1.026.019.053.019.088.019.142.407 2.92.277 7.432-2.849 10.512z" style="mix-blend-mode:multiply"/>
        <path fill="url(#e)" fill-rule="nonzero" d="M37 11.58c0 .85-.282 1.72-.935 2.386-2.24 2.294-5.256 2.978-7.867 3.034-.018-.999-.3-1.85-.758-2.535-.935-1.443-2.558-2.201-3.775-2.201-.582 0-1.129.092-1.605.277h-.018c-.176-3.237.106-7.825 2.717-10.563.582-.611 1.217-.888 1.834-.962 1.023-.111 1.993.388 2.628 1.036 1.694 1.776 2.064 4.94 2.064 4.94s3.387.665 4.78 2.145c.6.61.935 1.517.935 2.442z" style="mix-blend-mode:multiply"/>
        <path fill="url(#f)" fill-rule="nonzero" d="M26 22.182c1.898 2.216 4.911 4.783 8.76 4.818.82 0 1.533-.316 2.09-.809.715-.633 1.15-1.547 1.15-2.426 0-1.97-1.916-4.8-1.916-4.8s1.846-2.391 1.846-4.783c0-.808-.296-1.74-.975-2.39-.488-.476-1.167-.792-2.09-.792-2.804 0-5.382 1.705-7.35 3.534.436.65.732 1.46.75 2.409v.07c0 1.917-.715 3.394-1.917 4.783l-.348.386z" style="mix-blend-mode:multiply"/>
        <path fill="url(#g)" fill-rule="nonzero" d="M25.814 22.027c3.198-.142 7.561.212 10.205 2.739.555.53.85 1.113.943 1.679.185 1.078-.333 2.138-1.017 2.792-1.775 1.696-4.936 2.067-4.936 2.067s-.666 3.393-2.145 4.79c-.647.618-1.645.954-2.644.9a3.319 3.319 0 0 1-2.181-.936c-2.866-2.792-3.217-6.786-2.977-9.702.185-.194.388-.389.592-.6.462-.442.98-.92 1.571-1.379.832-.672 1.59-1.308 2.237-1.98l.352-.37z" style="mix-blend-mode:multiply"/>
        <path fill="url(#h)" fill-rule="nonzero" d="M27 34.65c0 .833-.299 1.576-.774 2.137-.633.76-1.564 1.213-2.444 1.213-1.986 0-4.817-1.992-4.817-1.992s-2.391 1.92-4.765 1.92c-.862 0-1.864-.344-2.497-1.123-.422-.507-.703-1.177-.703-2.046 0-4.056 3.288-7.64 5.644-9.705.018-.018.053-.036.07-.054 1.811 1.829 2.726 3.404 2.726 3.404s.633-1.086 1.88-2.499c.177-.199.37-.398.564-.615 2.268 1.937 5.063 5.178 5.116 9.36z" style="mix-blend-mode:multiply"/>
        <path fill="#FCEA10" fill-rule="nonzero" d="M22.054 12.05c-.01 0-.01 0 0 0-.01 0-.01 0 0 0z"/>
        <path d="M26.1 22c-.03.032-.065.064-.1.1"/>
        <text fill="#6421A7" font-family="Arvo-Bold, Arvo" font-size="22" font-weight="bold" transform="translate(-.641)">
            <tspan x="54.641" y="28">Communications</tspan>
        </text>
    </g>
</svg>
