<svg xmlns="http://www.w3.org/2000/svg" width="163" height="37" viewBox="0 0 163 37">
    <defs>
        <linearGradient id="a" x1="22.942%" x2="69.258%" y1="73.83%" y2="3.837%">
            <stop offset="0%" stop-color="#F9B335"/>
            <stop offset="100%" stop-color="#FFDF00"/>
        </linearGradient>
        <linearGradient id="b" x1="-.036%" x2="100.036%" y1="50.014%" y2="50.014%">
            <stop offset="0%" stop-color="#D88D31"/>
            <stop offset="100%" stop-color="#E3BC00"/>
        </linearGradient>
        <linearGradient id="c" x1=".046%" x2="100.013%" y1="50.046%" y2="50.046%">
            <stop offset="0%" stop-color="#7B7C46"/>
            <stop offset="100%" stop-color="#AB9C31"/>
        </linearGradient>
        <linearGradient id="d" x1=".158%" x2="100.128%" y1="49.834%" y2="49.834%">
            <stop offset="0%" stop-color="#3EAB37"/>
            <stop offset="100%" stop-color="#96C125"/>
        </linearGradient>
        <linearGradient id="e" x1=".111%" x2="99.982%" y1="50.053%" y2="50.053%">
            <stop offset="0%" stop-color="#672784"/>
            <stop offset="100%" stop-color="#D71053"/>
        </linearGradient>
        <linearGradient id="f" x1=".066%" x2="99.975%" y1="49.985%" y2="49.985%">
            <stop offset="0%" stop-color="#EB73AA"/>
            <stop offset="100%" stop-color="#DE0F5E"/>
        </linearGradient>
        <linearGradient id="g" x1="1.874%" y1="50.021%" y2="50.021%">
            <stop offset="0%" stop-color="#37A9E1"/>
            <stop offset="0%" stop-color="#36A5DC"/>
            <stop offset="100%" stop-color="#2A255B"/>
        </linearGradient>
        <linearGradient id="h" x1="-.061%" x2="99.947%" y1="50.025%" y2="50.025%">
            <stop offset="0%" stop-color="#37A9E1"/>
            <stop offset="100%" stop-color="#31AC67"/>
        </linearGradient>
    </defs>
    <g fill="none" fill-rule="evenodd">
        <path fill="url(#a)" fill-rule="nonzero" d="M25.727 3.058c0 3.57-2.784 6.765-5.022 8.763h-.017a4.166 4.166 0 0 0-2.067 1.658.52.52 0 0 1-.12.085c-.65-1.025-1.674-1.794-3.092-1.965a6.62 6.62 0 0 0-.58-.034h-.172c-2.1-1.862-4.441-4.749-4.475-8.405a2.97 2.97 0 0 1 .785-2.05C11.582.41 12.471 0 13.325 0c1.913 0 4.663 1.88 4.663 1.88S20.312.067 22.635.067c.854 0 1.845.342 2.477 1.128.359.444.615 1.059.615 1.862z" style="mix-blend-mode:multiply" transform="translate(.154 .068)"/>
        <path fill="url(#b)" fill-rule="nonzero" d="M15.409 11.582a6.62 6.62 0 0 0-.58-.034h-.172c-1.366.068-3.16 1.025-3.895 2.768a4.402 4.402 0 0 0-.324 1.537c-2.734.086-6.15-.41-8.593-2.802a2.97 2.97 0 0 1-.871-1.81c-.12-.991.205-2.016.854-2.648 1.35-1.35 4.63-1.982 4.63-1.982S6.815 3.69 8.455 2.05c.598-.598 1.538-1.042 2.511-.957.598.052 1.23.308 1.811.889 2.477 2.494 2.785 6.628 2.63 9.6z" style="mix-blend-mode:multiply" transform="translate(.154 .068)"/>
        <path fill="url(#c)" fill-rule="nonzero" d="M12.3 20.62a.3.3 0 0 1-.069.085c-1.81 2.255-4.954 5.227-9.07 5.261a2.9 2.9 0 0 1-1.982-.734C.444 24.617 0 23.694 0 22.823c0-1.913 1.88-4.68 1.88-4.68S.067 15.818.067 13.512c0-.769.274-1.64.889-2.272.478-.496 1.178-.837 2.1-.837 2.99 0 5.724 1.947 7.688 3.912a4.402 4.402 0 0 0-.324 1.537v.137c.017 1.845.717 3.28 1.879 4.63z" style="mix-blend-mode:multiply" transform="translate(.154 .068)"/>
        <path fill="url(#d)" fill-rule="nonzero" d="M13.154 34.234a3.093 3.093 0 0 1-2.135.906c-.889.034-1.76-.308-2.34-.871-1.35-1.35-1.982-4.63-1.982-4.63s-2.922-.359-4.562-1.999c-.563-.563-1.008-1.452-.973-2.374.034-.65.273-1.316.888-1.93 2.648-2.648 7.158-2.836 10.164-2.597.052 0 .103.017.137.017.65.734 1.435 1.452 2.323 2.204.393.324.77.666 1.094.99.017.052.017.086.017.137.376 2.819.256 7.175-2.631 10.147z" style="mix-blend-mode:multiply" transform="translate(.154 .068)"/>
        <path fill="url(#e)" fill-rule="nonzero" d="M35.157 10.916c0 .786-.273 1.589-.905 2.204-2.17 2.118-5.091 2.75-7.62 2.801-.017-.922-.29-1.708-.734-2.34-.905-1.332-2.477-2.033-3.656-2.033-.564 0-1.093.086-1.554.256h-.017c-.171-2.99.102-7.226 2.63-9.754.564-.564 1.179-.82 1.777-.888.99-.103 1.93.358 2.545.956 1.64 1.64 1.999 4.561 1.999 4.561s3.28.615 4.63 1.982c.58.564.905 1.4.905 2.255z" style="mix-blend-mode:multiply" transform="translate(.154 .068)"/>
        <path fill="url(#f)" fill-rule="nonzero" d="M24.412 21.012c1.862 2.153 4.817 4.647 8.592 4.68.803 0 1.504-.307 2.05-.785.7-.615 1.128-1.503 1.128-2.357 0-1.914-1.88-4.664-1.88-4.664s1.812-2.323 1.812-4.647c0-.785-.29-1.69-.957-2.323-.478-.461-1.145-.769-2.05-.769-2.75 0-5.279 1.657-7.21 3.434.428.632.718 1.418.736 2.34v.069c0 1.862-.7 3.297-1.88 4.646l-.341.376z" style="mix-blend-mode:multiply" transform="translate(.154 .068)"/>
        <path fill="url(#g)" fill-rule="nonzero" d="M24.753 20.636c2.956-.136 6.987.205 9.43 2.648.513.513.786 1.076.871 1.623.171 1.042-.307 2.067-.94 2.7-1.64 1.64-4.56 1.998-4.56 1.998s-.615 3.28-1.982 4.63c-.598.597-1.52.922-2.443.87a3.001 3.001 0 0 1-2.016-.905c-2.647-2.699-2.972-6.56-2.75-9.378.17-.188.359-.376.547-.581a18.95 18.95 0 0 1 1.452-1.333c.768-.649 1.469-1.264 2.067-1.913l.324-.359z" style="mix-blend-mode:multiply" transform="translate(.154 .068)"/>
        <path fill="url(#h)" fill-rule="nonzero" d="M25.898 33.09c0 .786-.29 1.486-.752 2.016-.615.717-1.52 1.144-2.374 1.144-1.93 0-4.681-1.879-4.681-1.879s-2.323 1.81-4.63 1.81c-.837 0-1.81-.324-2.425-1.058-.41-.479-.684-1.11-.684-1.93 0-3.827 3.195-7.21 5.484-9.157.017-.017.051-.034.068-.051 1.76 1.725 2.648 3.211 2.648 3.211s.615-1.025 1.828-2.357c.17-.188.359-.376.547-.581 2.203 1.828 4.92 4.886 4.97 8.832z" style="mix-blend-mode:multiply" transform="translate(.154 .068)"/>
        <path fill="#FCEA10" fill-rule="nonzero" d="M20.869 11.883c-.02 0-.02 0 0 0-.02 0-.02 0 0 0z"/>
        <path d="M24.907 20.705c-.102.12-.222.239-.342.376"/>
        <g fill="#1A1A1A" fill-rule="nonzero">
            <path d="M46.722 11.104c0 .222-.051.564-.154 1.008-.102.444-.239.957-.41 1.537-.717 2.546-1.64 5.228-1.64 7.91 0 .478.035.922.086 1.332.068.41.154.769.29 1.077.137.307.29.546.496.717.205.17.427.256.7.256.273 0 .53-.085.786-.239.256-.154.495-.376.735-.666a6.08 6.08 0 0 0 .683-1.008c.222-.393.427-.803.632-1.264.205-.444.393-.923.564-1.418.17-.495.341-1.008.495-1.503.547-1.794 1.042-3.827 1.47-6.099.085-.359.17-.666.29-.923.102-.239.239-.444.393-.597.153-.154.324-.257.53-.308.204-.068.426-.085.7-.085.256 0 .46.017.614.068.154.051.29.102.376.188.103.085.171.17.205.29.034.12.052.24.052.376 0 .051-.035.24-.086.581-.051.342-.12.769-.205 1.298-.085.53-.17 1.128-.273 1.794a61.25 61.25 0 0 0-.274 2.067c-.085.7-.153 1.4-.205 2.084a25.745 25.745 0 0 0-.085 1.896c0 .598.017 1.128.068 1.606.052.479.12.889.222 1.213.103.342.24.598.393.769.171.17.36.273.615.273.41 0 .803-.17 1.145-.495.342-.325.65-.769.94-1.316.29-.546.546-1.178.768-1.913.222-.717.444-1.657.667-2.819.222-1.161.41-2.374.563-3.638.154-1.264.256-2.136.308-2.597.051-.461.102-.837.136-1.11.017-.29.086-.53.205-.7.103-.172.257-.308.427-.41.171-.103.36-.154.581-.189.222-.034.444-.05.667-.05.17 0 .341.016.495.05a.848.848 0 0 1 .376.171.77.77 0 0 1 .239.325c.051.136.085.307.085.512 0 .581-.05 1.23-.17 1.93-.103.701-.257 1.401-.428 2.102-.17.7-1.127 5.193-1.212 5.603-.086.41-.12.666-.12.803 0 .307.034.58.102.803.069.222.171.41.29.547.12.136.274.256.428.307.17.068.342.103.53.103.187 0 .392-.052.58-.137.205-.086.393-.205.581-.376.188-.154.359-.342.513-.564.153-.222.29-.46.393-.734l.17 2.016c-.478.512-.99.922-1.503 1.23-.512.29-1.008.444-1.452.444-.222 0-.427-.034-.615-.103a1.894 1.894 0 0 1-.512-.29 1.661 1.661 0 0 1-.376-.513 2.297 2.297 0 0 1-.205-.751 10.19 10.19 0 0 1-1.06 1.503c-.375.444-.768.837-1.195 1.145a5.69 5.69 0 0 1-1.333.734c-.46.17-.768.256-1.264.256-.615 0-1.315-.17-1.76-.495-.426-.325-.785-.769-1.059-1.333-.273-.563-.46-1.23-.597-1.981a15.698 15.698 0 0 1-.188-2.426c0-.307.017-.615.05-.888.035-.274.052-.53.086-.735-.239 1.503-.53 2.75-.888 3.758-.359 1.008-.786 1.811-1.264 2.426-.479.615-1.042 1.042-1.657 1.298-.615.257-1.145.393-1.896.393-.428 0-1.025-.136-1.418-.427-.393-.29-.735-.717-1.042-1.28-.29-.565-.53-1.265-.718-2.12-.188-.853-.273-1.844-.273-2.972 0-.7.034-1.4.12-2.135a24.562 24.562 0 0 1 .888-4.39c.222-.718.46-1.418.734-2.102.171-.375.325-.683.496-.888.17-.205.324-.376.495-.478.17-.103.342-.171.513-.188.17-.017.341-.034.53-.034.136 0 .272.017.392.034s.222.068.308.12a.65.65 0 0 1 .187.273c.137.102.154.273.154.461z"/>
            <path d="M66.129 26.274c-.615 0-1.145-.12-1.606-.342a3.182 3.182 0 0 1-1.145-.922c-.307-.376-.53-.837-.683-1.333-.273-.888-.24-1.862-.068-2.767.17-.906.444-1.828.973-2.597a4.176 4.176 0 0 1 1.845-1.537c.359-.171.786-.274 1.23-.274.376 0 .718.086 1.025.205.308.12.598.29.82.496.24.205.41.478.547.768.137.308.205.632.205 1.008 0 .393-.137.837-.393 1.333-.273.495-.564.94-.94 1.264-1.11.974-2.05 1.332-2.784 1.725.205.359.53.65.956.718.479.085 1.025-.051 1.47-.222a7.79 7.79 0 0 0 1.28-.581c.41-.24.804-.478 1.18-.752.375-.273.683-.53.94-.769l1.263 1.299a13.792 13.792 0 0 1-1.845 1.64c-.29.205-.58.41-.905.598a9.645 9.645 0 0 1-1.025.53 6.472 6.472 0 0 1-1.11.358 5.381 5.381 0 0 1-1.23.154zm-1.367-4.51s.957-.444 1.486-.803c.256-.17.598-.461.837-.769.24-.341.393-.683.342-1.093-.051-.325-.24-.581-.564-.666-.307-.086-.683.102-.922.273-.718.495-1.042 2.238-1.042 2.238l-.137.82z"/>
            <path d="M72.432 26.274c-.359 0-.683-.154-.99-.461-.308-.308-.564-.718-.804-1.23a7.954 7.954 0 0 1-.53-1.794c-.324-1.743-.17-3.536.172-5.262.341-1.776.768-3.604 1.503-5.261.29-.65.598-1.247.94-1.811.341-.564.7-1.06 1.059-1.47.376-.426.751-.751 1.161-.99.41-.24.82-.359 1.23-.359.308 0 .547.051.752.171.205.12.359.273.461.461.12.188.188.41.24.65.05.239.068.478.068.734 0 .615-.069 1.247-.222 1.896-.154.65-.342 1.298-.598 1.948-.256.649-.53 1.298-.871 1.947a53.4 53.4 0 0 1-1.025 1.948c-.36.649-.718 1.28-1.077 1.896-.358.632-.683 1.23-.99 1.828a1.988 1.988 0 0 0-.103.256c-.034.102-.068.222-.102.342-.171.649-.274 1.417.068 2.032.102.188.222.29.427.257a3.43 3.43 0 0 0 .803-.274c.188-.085.376-.188.564-.307l.563-.359a18.12 18.12 0 0 0 1.333-.957l.871 2.068c-.598.392-1.196.751-1.777 1.059-.256.136-.53.256-.803.393-.273.136-.546.239-.82.341-.273.103-.546.171-.802.24a4.86 4.86 0 0 1-.7.068zm0-7.807c.29-.53.615-1.128.94-1.794.666-1.332 1.264-2.716 1.708-4.151.222-.7.495-1.81.393-2.443-.017-.137-.034-.205-.085-.205-.188 0-.376.12-.581.376a6.14 6.14 0 0 0-.632 1.008c-.205.427-.462 1.11-.752 2.084-.137.461-.273.905-.41 1.367-.12.46-.205.94-.29 1.4-.137.906-.257 1.692-.29 2.358zM80.837 24.224c0-.427.034-.94.085-1.504.052-.563.12-1.195.205-1.879.086-.683.171-1.298.274-1.828.102-.546.188-1.007.29-1.4.069-.308.205-.547.427-.752.205-.205.496-.308.837-.308.36 0 .598.103.735.325.137.222.205.513.205.871 0 .103-.017.24-.034.393-.017.171-.051.359-.069.547-.034.205-.068.41-.085.615a7.305 7.305 0 0 0-.085.734c-.035.274-.052.479-.069.615-.017.137-.034.223-.034.274h.205c.034-.069.103-.188.188-.342.085-.154.905-1.947 1.008-2.17.12-.204.205-.41.307-.563.086-.171.154-.29.205-.359.205-.359.445-.598.718-.735.273-.136.564-.205.888-.205.325 0 .581.137.786.41.188.274.29.65.29 1.145 0 .068-.017.188-.05.359-.035.17-.07.376-.12.615-.052.239-.103.546-.154.922-.051.376-.103.7-.154 1.008-.051.29-.085.581-.12.871-.034.29-.05.547-.05.803 0 .41.05.735.153 1.008.103.256.256.393.478.393.086 0 .188-.034.342-.085.222-.086 1.11-.65 1.52-.923.53-.341 1.145-.751 1.88-1.23l-.018 2.204-.495.376c-.034.034-.342.205-.922.512-.837.444-1.35.718-1.572.803-.513.222-.837.359-.957.393a3.415 3.415 0 0 1-1.042.154c-.359 0-.666-.256-.905-.786-.24-.53-.376-1.281-.376-2.29 0-.392.034-.82.085-1.28.052-.462.12-.94.205-1.47h-.153l-2.58 5.125c-.137.274-.29.462-.444.547-.17.103-.359.154-.564.154-.273 0-.478-.051-.649-.171a1.1 1.1 0 0 1-.376-.461 1.906 1.906 0 0 1-.17-.666 3.899 3.899 0 0 1-.069-.77zM143.002 24.224c0-.427.035-.94.086-1.504.051-.563.12-1.195.205-1.879.085-.683.17-1.298.273-1.828.103-.546.188-1.007.29-1.4.069-.308.205-.547.428-.752.205-.205.495-.308.837-.308.358 0 .598.103.734.325.137.222.205.513.205.871 0 .103-.017.24-.034.393-.017.171-.051.359-.068.547-.034.205-.069.41-.086.615a7.305 7.305 0 0 0-.085.734c-.034.274-.051.479-.068.615-.018.137-.035.223-.035.274h.205c.035-.069.103-.188.188-.342.086-.154.906-1.947 1.008-2.17.12-.204.205-.41.308-.563.085-.171.153-.29.205-.359.205-.359.444-.598.717-.735.274-.136.564-.205.889-.205.324 0 .58.137.785.41.188.274.29.65.29 1.145 0 .068-.016.188-.05.359-.035.17-.069.376-.12.615-.051.239-.103.546-.154.922-.051.376-.102.7-.154 1.008-.05.29-.085.581-.12.871-.033.29-.05.547-.05.803 0 .41.05.735.153 1.008.103.256.257.393.479.393.085 0 .188-.034.341-.085.222-.086 1.11-.65 1.52-.923.53-.341 1.145-.751 1.88-1.23l-.017 2.204-.496.376c-.034.034-.341.205-.922.512-.837.444-1.35.718-1.572.803-.512.222-.837.359-.956.393a3.415 3.415 0 0 1-1.042.154c-.36 0-.667-.256-.906-.786-.24-.53-.376-1.281-.376-2.29 0-.392.034-.82.086-1.28.05-.462.12-.94.205-1.47h-.154l-2.58 5.125c-.136.274-.29.462-.444.547-.17.103-.359.154-.564.154-.273 0-.478-.051-.649-.171a1.1 1.1 0 0 1-.375-.461 1.906 1.906 0 0 1-.171-.666 3.899 3.899 0 0 1-.069-.77zM97.886 22.635c.376-.325.7-1.025.7-1.025s.308-.307.53-.598c.222-.29.41-.512.547-.683.136-.171.29-.393.478-.632.188-.24.41-.547.666-.906a29.81 29.81 0 0 1 1.025-1.332c.086-.12.188-.24.29-.342.103-.12.223-.222.342-.307a1.61 1.61 0 0 1 .94-.307c.307 0 .564.033.734.102.171.068.29.153.376.256.086.102.12.205.137.307.017.103.017.205.017.29 0 .155-.068.343-.188.53-.12.188-.256.376-.41.564-.154.171-.29.342-.427.496-.137.153-.205.256-.24.341 0 .205.018.393.052.564.034.17.154.58.24 1.623.068.922-.12 1.982-.12 2.409 1.708-.7 2.135-.94 2.801-1.504.274-.222.632-.307.94-.546l.017 2.22c-.41.308-.871.581-1.418.855-.53.273-1.093.495-1.691.7a13.23 13.23 0 0 1-1.794.478c-.598.12-1.162.171-1.708.171-.393 0-.752-.034-1.076-.102a2.738 2.738 0 0 1-.889-.325 1.825 1.825 0 0 1-.615-.58 1.95 1.95 0 0 1-.29-.872 1.495 1.495 0 0 1-.274.034c-.085 0-.17.017-.256.017-.102 0-.205 0-.29-.017a.556.556 0 0 1-.24-.068.466.466 0 0 1-.153-.205 1.333 1.333 0 0 1-.051-.41c0-.154.034-.308.12-.444a2.21 2.21 0 0 1 .58-.632c.103-.086.547-.069.598-.12zm.871 1.196c.086 0 .171.051.256.154l.325.324c.12.12.273.222.427.325.17.102.359.154.564.154.256 0 .461-.052.632-.137a.97.97 0 0 0 .393-.342c.102-.136.17-.307.205-.495.034-.188.461-1.674.051-3.007l-2.853 3.024zM111.98 23.216c.085-.068.17.222.375.085.205-.136.598-.41.854-.615.496-.41.496-.444.82-.751.29-.257.633-.53.94-.786l.085-.683c.137-1.401.376-2.683.7-3.861.325-1.162.701-2.221 1.145-3.16.445-.94.906-1.76 1.435-2.478.513-.7 1.042-1.298 1.572-1.776.53-.479 1.06-.837 1.589-1.077.53-.239 1.008-.358 1.469-.358.342 0 .65.068.922.188.274.12.53.324.718.58.205.257.359.581.478.957.12.376.171.837.171 1.333 0 .615-.085 1.264-.273 1.947a11.214 11.214 0 0 1-.786 2.05 16.435 16.435 0 0 1-1.23 2.067 19.214 19.214 0 0 1-1.589 1.982 18.887 18.887 0 0 1-1.879 1.81 17.516 17.516 0 0 1-2.084 1.52c-.154.701-.051 2.341-.051 2.358 0 .069.017.12.034.171.017.051.068.086.136.12.069.034.171.051.29.068.12.017.735-.017.94-.034 1.709-.17 3.861-1.298 4.203-1.315.051 0 .102-.018.154-.018.17 0 .307.035.427.103.12.068.222.154.307.256.086.103.137.24.188.376.034.137.068.29.068.427s-.017.256-.068.393a1.21 1.21 0 0 1-.188.359c-.085.102-.188.188-.307.29-.325.29-3.366 1.247-5.279 1.452-.342.034-.666.034-.99.034-.48 0-.89-.085-1.197-.239a1.812 1.812 0 0 1-.734-.649c-.188-.273-.308-.666-.376-1.179a10.538 10.538 0 0 1-.102-1.366c-.564.41-1.043.734-1.435.99-.393.24-.65.36-.77.36a.48.48 0 0 1-.324-.12.976.976 0 0 1-.273-.308 1.536 1.536 0 0 1-.205-.41 1.439 1.439 0 0 1-.068-.461c0-.12.017-.256.05-.376-.033-.085.035-.17.138-.256zm5.586-3.502a43.634 43.634 0 0 0 2.135-2.443c.359-.461.7-.923 1.042-1.4.325-.48.632-.957.906-1.419.273-.478.495-.922.666-1.383.188-.445.29-.872.341-1.265.018-.136.035-.256.035-.375 0-.12.017-.24.017-.342 0-.376-.052-.65-.154-.82-.103-.17-.24-.256-.427-.256-.205 0-.461.12-.735.341-.29.222-.58.547-.888.957-.308.41-.615.905-.94 1.503-.307.581-.615 1.23-.87 1.948a17.141 17.141 0 0 0-.701 2.34c-.205.82-.342 1.691-.427 2.614z"/>
            <path d="M129.917 24.173c-.24.222-.53.444-.889.7-.358.24-.734.478-1.144.683-.41.205-.82.376-1.247.513-.427.136-.82.205-1.213.205-.342 0-.632-.051-.854-.137-.24-.102-.427-.222-.564-.393a1.461 1.461 0 0 1-.308-.632c-.068-.24-.085-.512-.085-.82 0-.41.051-.888.137-1.452.188-1.145.632-2.819.905-3.792.256-.786.41-1.299.461-1.538a.778.778 0 0 1 .274-.444c.136-.12.29-.222.461-.29.17-.069.342-.137.53-.171a2.71 2.71 0 0 1 .495-.052c.273 0 .461.052.547.154.102.103.136.24.136.41 0 .137-.034.342-.102.615-.069.256-.137.564-.222.906-.086.341-.222.768-.376 1.298-.171.53-.683 2.152-.718 3.485-.017.29.035.53.103.7.068.171.205.257.41.257.239 0 .495-.086.786-.24.29-.17.58-.358.87-.598l.872-.717c.29-.256.53-.461.752-.632v1.982h-.017zm-4.408-10.319c0-.153.034-.324.103-.512.068-.188.17-.376.324-.547a1.79 1.79 0 0 1 .598-.427c.24-.12.547-.17.923-.17.222 0 .444.033.649.085.205.051.376.136.53.239.153.102.273.256.358.427.086.17.137.393.137.632 0 .222-.034.444-.103.65a1.613 1.613 0 0 1-.341.563c-.154.17-.359.307-.598.41a2.18 2.18 0 0 1-.854.154c-.581 0-1.008-.137-1.282-.41-.307-.274-.444-.65-.444-1.094zM143.703 24.173c-.24.222-.53.444-.889.7-.358.24-.734.478-1.144.683-.41.205-.82.376-1.247.513-.427.136-.82.205-1.213.205-.342 0-.632-.051-.854-.137-.24-.102-.427-.222-.564-.393a1.461 1.461 0 0 1-.307-.632c-.069-.24-.086-.512-.086-.82 0-.41.051-.888.137-1.452.188-1.145.632-2.819.905-3.792.256-.786.41-1.299.461-1.538a.778.778 0 0 1 .274-.444c.136-.12.29-.222.461-.29.17-.069.342-.137.53-.171a2.71 2.71 0 0 1 .495-.052c.273 0 .461.052.547.154.102.103.136.24.136.41 0 .137-.034.342-.102.615-.069.256-.137.564-.222.906-.086.341-.222.768-.376 1.298-.17.53-.683 2.152-.718 3.485-.017.29.035.53.103.7.068.171.205.257.41.257.24 0 .495-.086.786-.24.29-.17.58-.358.87-.598l.872-.717c.29-.256.53-.461.752-.632v1.982h-.017zm-4.408-10.319c0-.153.034-.324.103-.512.068-.188.17-.376.324-.547a1.79 1.79 0 0 1 .598-.427c.24-.12.547-.17.923-.17.222 0 .444.033.649.085.205.051.376.136.53.239.153.102.273.256.358.427.086.17.137.393.137.632 0 .222-.034.444-.103.65a1.613 1.613 0 0 1-.341.563c-.154.17-.359.307-.598.41a2.18 2.18 0 0 1-.854.154c-.581 0-1.008-.137-1.282-.41-.307-.274-.444-.65-.444-1.094z"/>
            <path d="M129.233 23.08a22.41 22.41 0 0 0-.068-1.282c-.017-.359-.034-.7-.051-.99-.017-.291-.034-.565-.034-.82 0-.257-.017-.513-.017-.77 0-.87.034-1.503.102-1.879.068-.376.205-.58.427-.615l1.247-.188.103-.017h.102c.171 0 .29.069.393.205a.86.86 0 0 1 .137.462l-.188 6.525.068-.017 2.682-6.56a.953.953 0 0 1 .12-.273 1.233 1.233 0 0 1 .598-.376c.12-.034.256-.051.41-.051.376 0 .683.085.922.24.222.153.342.358.342.597 0 .188-.034.359-.086.53a2.59 2.59 0 0 1-.205.546c-.17.342-.273.547-.307.632-.29.7-.461 1.128-.495 1.23-.035.12-.086.24-.12.359-.034.12-.068.24-.085.376-.018.137-.035.29-.035.444 0 .154.017.307.052.461.034.154.102.29.205.41.102.12.239.222.41.29.17.069.393.103.666.103.205 0 .427-.051.683-.154.256-.102.496-.222.735-.341.273-.154.546-.325.82-.513v2.306a7.074 7.074 0 0 1-1.35.667c-.461.17-.905.239-1.332.239-.359 0-.667-.051-.957-.171a2.206 2.206 0 0 1-.717-.444 2.634 2.634 0 0 1-.462-.615 1.705 1.705 0 0 1-.17-.718c-.188.393-.41.803-.65 1.213-.239.41-.495.786-.751 1.128a4.503 4.503 0 0 1-.77.82c-.255.205-.477.324-.7.324-.41 0-.717-.102-.939-.29a1.702 1.702 0 0 1-.495-.735 4.126 4.126 0 0 1-.205-.956c-.035-.342-.052-.684-.086-.991l.051-.342zM153.696 35.294a2.496 2.496 0 0 1-.785-.342 1.79 1.79 0 0 1-.581-.65 2.406 2.406 0 0 1-.274-.956c-.085-.888.274-1.742.7-2.494.428-.769.923-1.52 1.504-2.17.461-.512.837-.94 1.145-1.247.29-.307.82-.802 1.23-1.161l.034-1.025c-.735.7-1.452 1.042-2.153 1.042-.512 0-.99-.154-1.418-.461a3.121 3.121 0 0 1-.973-1.145c-.393-.82-.41-1.777-.034-2.87.341-1.025.683-1.862 1.025-2.528a6.122 6.122 0 0 1 1.35-1.743c.802-.717 1.57-1.076 2.34-1.076.341 0 .597.103.751.29.103.137.222.274.359.36.29.17.649.102.974.102.188 0 .375.034.512.153.308.274.273.752.273 1.128 0 .427-.017.854-.017 1.281-.017.94-.666 4.544-.751 5.57.188-.12.393-.257.615-.41.768-.582 2.443-3.247 2.63-3.247.205 0 .308.29.325.325.17.376.393 1.281.393 1.657 0 .086 0 .12-.034.171-.069.188-.564.82-1.025 1.281-.479.461-.871.837-1.196 1.076-.051.035-.103.069-.137.086-.632.41-1.093.7-1.366.888-.171.12-.29.325-.36.632-.067.308-.136.889-.221 1.743-.034.239-.051.427-.068.563-.035.29-.069.598-.12.889a6.24 6.24 0 0 1-.205.974c-.103.358-.205.7-.325 1.007-.12.308-.29.615-.495.923a3.723 3.723 0 0 1-.666.769 3.458 3.458 0 0 1-.889.512 3.1 3.1 0 0 1-1.144.205 2.64 2.64 0 0 1-.923-.102zm1.418-4.92c-.444.717-.803 1.469-1.059 2.203-.12.325-.24.837.222.923.974.188 1.367-.957 1.606-1.657.273-.786.427-1.606.53-2.426.034-.342.068-.547.085-.632-.478.342-.923.871-1.384 1.589zm-.58-6.39c.153.274.358.41.614.41.445 0 .82-.358 1.11-1.076.223-.563 1.128-4.988 1.128-4.988-.768 0-1.435.513-2.016 1.538-.632 1.093-.956 1.827-1.024 2.22-.12.855-.052 1.47.187 1.897zM106.257 22.567c.376-.325.666-.581.888-.803.222-.205.461-.461.683-.735.222-.29.41-.512.547-.683.137-.17.29-.393.478-.632.188-.24.41-.547.667-.906a29.81 29.81 0 0 1 1.025-1.332c.085-.12.187-.24.29-.342.102-.12.222-.222.342-.307a1.61 1.61 0 0 1 .94-.307c.307 0 .563.033.734.102.17.068.29.154.376.256.085.103.12.205.136.308.017.102.017.205.017.29 0 .154-.068.342-.188.53-.12.187-.256.375-.41.563-.153.171-.29.342-.427.496-.136.153-.205.256-.239.341 0 .205.017.393.051.564.035.17.154.58.24 1.623.068.922-.12 1.982-.12 2.409.24-.154.769-.444 1.042-.564.273-.137.564-.256.854-.41.29-.137.598-.29.906-.461.307-.171.632-.376.94-.615l.648.393c-.41.307-1.161 1.178-1.64 1.537-.717.53-1.025 1.162-2.186 1.726-.564.273-1.11.495-1.709.597-.597.12-1.161.171-1.708.171-.393 0-.752-.034-1.076-.102a2.738 2.738 0 0 1-.888-.325 1.825 1.825 0 0 1-.615-.58 1.95 1.95 0 0 1-.29-.872 1.495 1.495 0 0 1-.274.034c-.086 0-.171.017-.256.017-.103 0-.205 0-.29-.017a.556.556 0 0 1-.24-.068.466.466 0 0 1-.154-.205 1.333 1.333 0 0 1-.051-.41c0-.154.034-.308.12-.444a2.21 2.21 0 0 1 .58-.632c.137-.103.205-.171.257-.205zm1.23 1.264c.085 0 .17.051.256.154l.324.324c.12.12.274.222.428.325.17.102.358.154.563.154.257 0 .462-.052.632-.137a.97.97 0 0 0 .393-.342c.103-.136.171-.307.205-.495.034-.188.462-1.674.052-3.007l-2.853 3.024zM93.769 26.274c-.615 0-1.145-.12-1.606-.342a3.182 3.182 0 0 1-1.144-.922c-.308-.376-.53-.837-.684-1.333-.273-.888-.239-1.862-.068-2.767.17-.906.444-1.828.974-2.597a4.176 4.176 0 0 1 1.845-1.537c.358-.171.785-.274 1.23-.274.375 0 .717.086 1.025.205.307.12.598.29.82.496.239.205.41.478.546.768.137.308.205.632.205 1.008 0 .393-.136.837-.393 1.333-.273.495-.563.94-.94 1.264-1.11.974-2.05 1.332-2.784 1.725.205.359.53.65.957.718.478.085 1.025-.051 1.469-.222a7.79 7.79 0 0 0 1.281-.581c.41-.24.923-.615 1.299-.888.375-.274.58-.513.837-.752l1.161 1.179c-.58.615-1.093 1.383-1.742 1.845-.29.205-.581.41-.906.598a9.645 9.645 0 0 1-1.025.53 6.472 6.472 0 0 1-1.11.358 4.255 4.255 0 0 1-1.247.188zm-1.35-4.51s.957-.444 1.487-.803c.256-.17.598-.461.837-.769.239-.341.393-.683.341-1.093-.05-.325-.239-.581-.563-.666-.308-.086-.684.102-.923.273-.717.495-1.042 2.238-1.042 2.238l-.137.82zM77.728 26.274c-.359 0-.683-.154-.99-.461-.308-.308-.565-.718-.804-1.23a7.954 7.954 0 0 1-.53-1.794c-.324-1.743-.17-3.536.171-5.262.342-1.776.77-3.604 1.504-5.261.29-.65.598-1.247.94-1.811.341-.564.7-1.06 1.059-1.47.375-.426.751-.751 1.161-.99.41-.24.82-.359 1.23-.359.308 0 .547.051.752.171.205.12.359.273.461.461.12.188.188.41.24.65.05.239.068.478.068.734 0 .615-.069 1.247-.223 1.896-.153.65-.341 1.298-.597 1.948-.257.649-.53 1.298-.872 1.947a53.4 53.4 0 0 1-1.025 1.948c-.358.649-.717 1.28-1.076 1.896-.359.632-.683 1.23-.99 1.828a1.988 1.988 0 0 0-.103.256c-.034.102-.069.222-.103.342-.17.649-.273 1.417.069 2.032.102.188.222.29.427.257a3.43 3.43 0 0 0 .803-.274c.188-.085.375-.188.563-.307l.564-.359a18.12 18.12 0 0 0 1.333-.957l.87 2.068c-.597.392-1.195.751-1.776 1.059-.256.136-.53.256-.803.393-.273.136-.546.239-.82.341-.273.103-.546.171-.803.24-.239.034-.478.068-.7.068zm0-7.807c.29-.53.615-1.128.94-1.794.666-1.332 1.264-2.716 1.708-4.151.222-.7.495-1.81.393-2.443-.017-.137-.034-.205-.086-.205-.188 0-.376.12-.58.376a6.14 6.14 0 0 0-.633 1.008c-.205.427-.46 1.11-.751 2.084-.137.461-.274.905-.41 1.367-.12.46-.205.94-.29 1.4-.154.906-.257 1.692-.291 2.358z"/>
        </g>
    </g>
</svg>
